<?xml version="1.0" encoding="UTF-8"?>
<svg width="24px" height="23px" viewBox="0 0 24 23" version="1.1" xmlns="http://www.w3.org/2000/svg" xmlns:xlink="http://www.w3.org/1999/xlink">
    <!-- Generator: Sketch 54.1 (76490) - https://sketchapp.com -->
    <title>UI / Icons / 24 / calendar-date-2</title>
    <desc>Created with Sketch.</desc>
    <g id="Symbols" stroke="none" stroke-width="1" fill="none" fill-rule="evenodd">
        <g id="UI-/-Element-/-PostMeta">
            <g id="UI-/-Icons-/-24-/-calendar-date-2">
                <g>
                    <g id="calendar-date-2">
                        <rect id="Rectangle" x="0" y="0" width="24" height="24"></rect>
                        <g id="Group" stroke-linecap="round" stroke-linejoin="round" transform="translate(1.000000, 1.000000)">
                            <rect id="Rectangle" stroke="#FFFFFF" stroke-width="2" x="4" y="11" width="2" height="1"></rect>
                            <rect id="Rectangle" stroke="#FFFFFF" stroke-width="2" x="10" y="11" width="2" height="1"></rect>
                            <rect id="Rectangle" stroke="#FFFFFF" stroke-width="2" x="4" y="16" width="2" height="1"></rect>
                            <rect id="Rectangle" stroke="#FFFFFF" stroke-width="2" x="10" y="16" width="2" height="1"></rect>
                            <rect id="Rectangle" stroke="#FFFFFF" stroke-width="2" x="16" y="11" width="2" height="1"></rect>
                            <rect id="Rectangle" fill="#FFFFFF" x="4" y="11" width="2" height="1"></rect>
                            <rect id="Rectangle" fill="#FFFFFF" x="10" y="11" width="2" height="1"></rect>
                            <rect id="Rectangle" fill="#FFFFFF" x="4" y="16" width="2" height="1"></rect>
                            <rect id="Rectangle" fill="#FFFFFF" x="10" y="16" width="2" height="1"></rect>
                            <rect id="Rectangle" fill="#FFFFFF" x="16" y="11" width="2" height="1"></rect>
                            <rect id="Rectangle" stroke="#FFFFFF" stroke-width="2" x="0" y="2" width="22" height="19" rx="2"></rect>
                            <path d="M5,0 L5,3" id="Path" stroke="#FFFFFF" stroke-width="2"></path>
                            <path d="M17,0 L17,3" id="Path" stroke="#FFFFFF" stroke-width="2"></path>
                            <path d="M0,7 L22,7" id="Path" stroke="#FFFFFF" stroke-width="2"></path>
                        </g>
                    </g>
                </g>
            </g>
        </g>
    </g>
</svg>